<?xml version="1.0" encoding="UTF-8" standalone="no"?>
<svg
   xmlns:dc="http://purl.org/dc/elements/1.1/"
   xmlns:cc="http://creativecommons.org/ns#"
   xmlns:rdf="http://www.w3.org/1999/02/22-rdf-syntax-ns#"
   xmlns:svg="http://www.w3.org/2000/svg"
   xmlns="http://www.w3.org/2000/svg"
   xmlns:sodipodi="http://sodipodi.sourceforge.net/DTD/sodipodi-0.dtd"
   xmlns:inkscape="http://www.inkscape.org/namespaces/inkscape"
   width="210mm"
   height="297mm"
   viewBox="0 0 210 297"
   version="1.1"
   id="svg8"
   inkscape:version="1.0.1 (3bc2e813f5, 2020-09-07)"
   sodipodi:docname="all-bits.svg">
  <defs
     id="defs2">
    <marker
       style="overflow:visible;"
       id="Arrow1Lend"
       refX="0.0"
       refY="0.0"
       orient="auto"
       inkscape:stockid="Arrow1Lend"
       inkscape:isstock="true">
      <path
         transform="scale(0.8) rotate(180) translate(12.5,0)"
         style="fill-rule:evenodd;stroke:#000000;stroke-width:1.0pt;"
         d="M 0.0,0.0 L 5.0,-5.0 L -12.5,0.0 L 5.0,5.0 L 0.0,0.0 z "
         id="path840" />
    </marker>
  </defs>
  <sodipodi:namedview
     id="base"
     pagecolor="#ffffff"
     bordercolor="#666666"
     borderopacity="1.0"
     inkscape:pageopacity="0.0"
     inkscape:pageshadow="2"
     inkscape:zoom="1.5295437"
     inkscape:cx="270.99586"
     inkscape:cy="560"
     inkscape:document-units="mm"
     inkscape:current-layer="layer1"
     inkscape:document-rotation="0"
     showgrid="false"
     inkscape:window-width="1537"
     inkscape:window-height="1080"
     inkscape:window-x="1920"
     inkscape:window-y="326"
     inkscape:window-maximized="0" />
  <metadata
     id="metadata5">
    <rdf:RDF>
      <cc:Work
         rdf:about="">
        <dc:format>image/svg+xml</dc:format>
        <dc:type
           rdf:resource="http://purl.org/dc/dcmitype/StillImage" />
        <dc:title></dc:title>
      </cc:Work>
    </rdf:RDF>
  </metadata>
  <g
     inkscape:label="Layer 1"
     inkscape:groupmode="layer"
     id="layer1">
    <rect
       style="fill:none;stroke:#fb0097;stroke-width:0.426174;stroke-miterlimit:4;stroke-dasharray:none;stroke-opacity:1"
       id="rect835"
       width="94.33696"
       height="9.5108738"
       x="34.230366"
       y="125.85661" />
    <path
       style="fill:#000000;fill-opacity:1;fill-rule:nonzero;stroke:none;stroke-width:0.286886"
       id="path1125"
       d="m 36.121798,122.88396 c 0.0172,-0.47534 0.188412,-0.89432 0.435325,-1.31566 0.263227,-0.48216 0.597569,-0.93107 0.894446,-1.39801 0.449494,-0.57818 0.954107,-1.12575 1.472222,-1.66052 0.235693,-0.23444 0.48027,-0.47464 0.76514,-0.66831 0.500629,-0.34035 3.920178,-1.96329 -1.657297,0.80311 0.725742,-0.33834 1.506368,-0.57225 2.290281,-0.79082 0.960583,-0.26544 1.957028,-0.41939 2.945635,-0.58801 1.02603,-0.17196 2.063378,-0.278 3.098925,-0.39588 0.889404,-0.0999 1.780714,-0.18829 2.672136,-0.27461 1.042932,-0.11393 2.085721,-0.22987 3.130323,-0.33233 0.97375,-0.0823 1.942877,-0.19203 2.919261,-0.25113 1.101036,-0.0573 2.204623,-0.0628 3.307339,-0.0678 1.220003,0.0283 2.439201,0.0828 3.653755,0.18517 0.902482,0.089 1.809075,0.13325 2.716515,0.16223 0.703683,0.0221 1.408016,0.0179 2.112035,0.0166 0.61628,0.002 1.23254,0.005 1.848824,0.003 0.555188,0.022 1.10228,-0.0169 1.642811,-0.12433 1.59871,-0.42489 3.138101,-1.14667 4.316512,-2.16592 0.841281,-0.64181 1.488546,-1.4142 2.060184,-2.2367 0.54492,-0.79525 0.938121,-1.65521 1.300599,-2.51964 0.25861,-0.5699 0.359483,-1.17448 0.495296,-1.77063 0.08025,-0.1927 0.03857,-0.42059 0.126723,-0.6112 0.0121,-0.0261 0.09348,-0.0779 0.06513,-0.0635 -2.640625,1.34337 -2.953603,0.55519 -2.440263,1.53913 0.313168,0.74316 0.505564,1.51522 0.844604,2.25074 0.224211,0.56571 0.585076,1.0752 0.957092,1.57702 0.399294,0.61242 0.966524,1.11867 1.5333,1.61887 0.596362,0.52511 1.322718,0.78378 2.148875,0.92314 1.241207,0.16602 2.498801,0.23385 3.751623,0.30607 1.522781,0.0846 3.049083,0.10635 4.57458,0.12334 1.159993,0.0191 2.321563,-0.0363 3.477116,-0.12021 1.202906,-0.11578 2.411735,-0.16674 3.621191,-0.1961 1.249441,-0.0337 2.492962,-0.13435 3.737024,-0.23143 1.32624,-0.10026 2.6581,-0.12068 3.98871,-0.13317 1.15622,-0.0399 2.30632,0.029 3.45346,0.14341 1.00121,0.0873 1.99825,0.20008 2.99251,0.33241 1.35832,0.18278 2.69907,0.43688 4.02854,0.73369 1.37952,0.29297 2.71857,0.68944 4.04124,1.12887 0.90985,0.32509 1.76942,0.75591 2.46388,1.3554 0.50036,0.42503 0.95075,0.88582 1.3907,1.35549 0.41133,0.3776 0.74226,0.80326 1.0132,1.26185 0.30087,0.40284 0.59882,0.80482 0.82324,1.24312 0.18382,0.3288 0.2761,0.68487 0.38968,1.03367 0,0 2.61158,-1.21052 2.61158,-1.21052 v 0 c -0.12306,-0.35805 -0.2281,-0.72218 -0.40517,-1.06482 -0.2265,-0.44393 -0.52072,-0.85316 -0.83147,-1.25782 -0.28921,-0.46993 -0.62468,-0.91198 -1.0455,-1.30599 -0.45435,-0.47223 -0.92732,-0.9288 -1.43375,-1.36168 -0.72157,-0.62873 -1.62128,-1.0762 -2.56511,-1.42609 -1.34437,-0.43823 -2.71205,-0.81375 -4.10578,-1.12313 -1.31521,-0.30748 -2.63772,-0.59234 -3.9821,-0.79347 -0.99887,-0.13147 -1.99671,-0.2658 -3.00499,-0.3355 -1.16485,-0.12201 -2.33003,-0.20307 -3.50569,-0.15106 -1.32849,0.0118 -2.65835,0.0197 -3.98376,0.10592 -1.2454,0.0938 -2.48785,0.21359 -3.738342,0.25212 -1.204553,0.0218 -2.409856,0.0528 -3.608201,0.16716 -1.160083,0.0995 -2.329267,0.15837 -3.49503,0.16252 -1.525993,-0.007 -3.052744,-0.0208 -4.576149,-0.10404 -1.223986,-0.0758 -2.450705,-0.16373 -3.663167,-0.32668 -0.781447,-0.10674 -1.471088,-0.30839 -2.047617,-0.79318 -0.556656,-0.48406 -1.110075,-0.97668 -1.484576,-1.58133 -0.357172,-0.49167 -0.714105,-0.98577 -0.947842,-1.53181 -0.362599,-0.72949 -0.55739,-1.50456 -0.821192,-2.2622 -0.476121,-1.06477 -0.05749,-0.39845 -2.901556,0.77367 -0.0062,0.003 -0.0753,0.67775 -0.122141,0.70361 -0.126471,0.58026 -0.232697,1.16579 -0.47897,1.72098 -0.353505,0.84667 -0.743724,1.6875 -1.289988,2.45981 -0.596576,0.81073 -1.284829,1.55783 -2.133149,2.19179 -0.108857,0.0821 -0.212808,0.16921 -0.32656,0.24639 -0.106694,0.0724 -0.45346,0.25752 -0.333804,0.20168 0.753632,-0.35172 1.489648,-0.73011 2.237761,-1.09024 0.178046,-0.0857 -0.355135,0.17619 -0.546715,0.23724 -0.08373,0.0267 -0.168951,0.0499 -0.253425,0.0748 -0.527294,0.12323 -1.053841,0.21513 -1.605641,0.1793 -0.621447,-7.9e-4 -1.242855,0.004 -1.864286,0.006 -0.703976,-8e-4 -1.407965,-0.002 -2.111909,-0.008 -0.914031,-0.0143 -1.827479,-0.0505 -2.737367,-0.1287 -1.225162,-0.0968 -2.453076,-0.15034 -3.682251,-0.1978 -1.096867,5.3e-4 -2.194547,-0.007 -3.290497,0.0374 -0.984242,0.0543 -1.96095,0.15548 -2.94033,0.25134 -1.039105,0.0934 -2.074665,0.21392 -3.111938,0.3207 -0.894947,0.0817 -1.788393,0.17569 -2.681331,0.27108 -1.041181,0.13131 -2.087736,0.23116 -3.123413,0.39454 -0.987126,0.16292 -1.982642,0.30821 -2.946783,0.55415 -0.786172,0.20217 -1.569025,0.42513 -2.303302,0.7414 -1.577907,0.76714 -3.049922,1.23462 -4.129138,2.42793 -0.519558,0.5515 -1.038778,1.1074 -1.474622,1.7102 -0.307865,0.46411 -0.627817,0.92314 -0.881472,1.41146 -0.238682,0.46053 -0.395016,0.92914 -0.424045,1.43483 0,0 2.688306,-1.16507 2.688306,-1.16507 z" />
    <text
       xml:space="preserve"
       style="font-style:normal;font-weight:normal;font-size:10.5833px;line-height:1.25;font-family:sans-serif;fill:#000000;fill-opacity:1;stroke:none;stroke-width:0.264583"
       x="44.6852"
       y="134.42603"
       id="text1129"><tspan
         sodipodi:role="line"
         id="tspan1127"
         x="44.6852"
         y="134.42603"
         style="stroke-width:0.264583">Machine Word</tspan></text>
    <text
       xml:space="preserve"
       style="font-style:normal;font-weight:normal;font-size:10.5833px;line-height:1.25;font-family:sans-serif;fill:#000000;fill-opacity:1;stroke:none;stroke-width:0.264583"
       x="39.08757"
       y="103.11834"
       id="text1133"><tspan
         sodipodi:role="line"
         id="tspan1131"
         x="39.08757"
         y="103.11834"
         style="stroke-width:0.264583">Value bits (64b)</tspan></text>
  </g>
</svg>
